<svg xmlns="http://www.w3.org/2000/svg" width="2778" height="1284" viewBox="0 0 2778 1284">
  <defs>
    <linearGradient id="bg" x1="0" y1="0" x2="1" y2="1">
      <stop offset="0" stop-color="#0a1022"/>
      <stop offset=".48" stop-color="#18213d"/>
      <stop offset="1" stop-color="#101013"/>
    </linearGradient>
    <linearGradient id="arena" x1="0" y1="0" x2="1" y2="1">
      <stop offset="0" stop-color="#26365f"/>
      <stop offset="1" stop-color="#11172c"/>
    </linearGradient>
  </defs>
  <rect width="2778" height="1284" fill="#11182f"/>
  <rect x="0" y="0" width="2778" height="231" fill="#1c294d"/>
  <circle cx="2305" cy="179" r="444" fill="#60e27a" opacity=".24"/>
  <rect x="194" y="105" width="1000" height="129" rx="28" fill="#f8f2de" opacity="1"/>
  <rect x="194" y="269" width="1277" height="46" rx="13" fill="#9da8c8" opacity="1"/>
  <rect x="194" y="493" width="666" height="166" rx="28" fill="#202942" opacity="1"/>
  <rect x="230" y="532" width="226" height="23" rx="8" fill="#ffffff" opacity=".55"/>
  <rect x="230" y="584" width="412" height="29" rx="8" fill="#60e27a" opacity=".92"/>
  <rect x="1055" y="256" width="1555" height="719" rx="42" fill="#1d2d55" stroke="#f8f2de" stroke-width="6" opacity="1"/>
  <g opacity=".18" stroke="#ffffff" stroke-width="3">
    <path d="M1115 493 H2550"/>
    <path d="M1115 730 H2550"/>
    <path d="M1568 316 V915"/>
    <path d="M2081 316 V915"/>
  </g>
  <circle cx="1443" cy="486" r="97" fill="#60e27a" stroke="#f7ffe8" stroke-width="8"/>
  <circle cx="2205" cy="500" r="97" fill="#ff7048" stroke="#fff0e8" stroke-width="8"/>
  <circle cx="1614" cy="773" r="97" fill="#51d7ff" stroke="#e8fbff" stroke-width="8"/>
  <circle cx="2019" cy="744" r="97" fill="#ffd43b" stroke="#fff8d0" stroke-width="8"/>
  <path d="M1334 615 C1645 414 2034 816 2330 586" fill="none" stroke="#60e27a" stroke-width="18" stroke-linecap="round" opacity=".78"/>
  <rect x="222" y="1065" width="2333" height="102" rx="32" fill="#202942" opacity="1"/>
  <rect x="333" y="1101" width="500" height="23" rx="10" fill="#f8f2de" opacity="1"/>
  <rect x="1083" y="1101" width="1111" height="17" rx="10" fill="#9da8c8" opacity="1"/>
</svg>
